<?xml version="1.0" encoding="UTF-8" standalone="no"?>
<svg
   sodipodi:docname="cc_logo_blue.svg"
   inkscape:version="1.3.1 (91b66b0783, 2023-11-16, custom)"
   id="svg8"
   version="1.1"
   viewBox="0 0 51.703022 40.597668"
   height="153.44"
   width="195.41299"
   inkscape:export-filename="cc_logo_blue.png"
   inkscape:export-xdpi="320"
   inkscape:export-ydpi="320"
   xmlns:inkscape="http://www.inkscape.org/namespaces/inkscape"
   xmlns:sodipodi="http://sodipodi.sourceforge.net/DTD/sodipodi-0.dtd"
   xmlns="http://www.w3.org/2000/svg"
   xmlns:svg="http://www.w3.org/2000/svg"
   xmlns:rdf="http://www.w3.org/1999/02/22-rdf-syntax-ns#"
   xmlns:cc="http://creativecommons.org/ns#"
   xmlns:dc="http://purl.org/dc/elements/1.1/">
  <defs
     id="defs2" />
  <sodipodi:namedview
     inkscape:window-maximized="1"
     inkscape:window-y="38"
     inkscape:window-x="0"
     inkscape:window-height="1401"
     inkscape:window-width="3438"
     fit-margin-bottom="0"
     fit-margin-right="0"
     fit-margin-left="0"
     fit-margin-top="0"
     inkscape:snap-text-baseline="true"
     showgrid="false"
     inkscape:document-rotation="0"
     inkscape:current-layer="g1"
     inkscape:document-units="mm"
     inkscape:cy="103.32642"
     inkscape:cx="133.67404"
     inkscape:zoom="2.0759453"
     inkscape:pageshadow="2"
     inkscape:pageopacity="0"
     borderopacity="1.0"
     bordercolor="#666666"
     pagecolor="#ffffff"
     id="base"
     units="px"
     showborder="true"
     borderlayer="false"
     inkscape:showpageshadow="false"
     inkscape:pagecheckerboard="true"
     inkscape:deskcolor="#d1d1d1" />
  <metadata
     id="metadata5">
    <rdf:RDF>
      <cc:Work
         rdf:about="">
        <dc:format>image/svg+xml</dc:format>
        <dc:type
           rdf:resource="http://purl.org/dc/dcmitype/StillImage" />
      </cc:Work>
    </rdf:RDF>
  </metadata>
  <g
     transform="translate(-48.294344,-107.8256)"
     id="layer1"
     inkscape:groupmode="layer"
     inkscape:label="Layer 1">
    <g
       transform="translate(-19.008222,21.428527)"
       id="g874">
      <g
         id="g1"
         transform="translate(0,1.8520719)">
        <g
           id="g2"
           transform="translate(2.3994553)">
          <g
             id="g868"
             transform="matrix(0.45670964,0,0,0.45670964,-1.0438573,33.930496)"
             style="fill:#0c1a27;fill-opacity:1">
            <path
               sodipodi:nodetypes="csssccccccccccc"
               id="path24"
               d="m 197.22091,132.50314 c 0,0 -0.0693,23.91142 -0.025,35.723 0.003,0.68123 0.0634,1.31756 0.61505,1.94896 0.52777,0.60403 1.40345,0.66137 2.19654,0.66845 4.24938,0.0379 12.77812,0.007 12.77812,0.007 l 5.66741,-6.60964 h -14.27435 v -25.78178 h 14.60089 v 7.2561 h 7.59495 l 0.002,-12.49781 c 0.006,-0.47297 -0.0869,-0.74559 -0.58541,-0.73628 l -28.56986,0.022 z"
               style="fill:#0c1a27;fill-opacity:1;stroke:#000000;stroke-width:0.264583px;stroke-linecap:butt;stroke-linejoin:miter;stroke-opacity:0" />
            <path
               style="fill:#0c1a27;fill-opacity:1;stroke:#000000;stroke-width:0.264583px;stroke-linecap:butt;stroke-linejoin:miter;stroke-opacity:0"
               d="m 175.66225,115.03399 c 0,0 -0.0693,23.91142 -0.025,35.723 0.003,0.68123 0.0634,1.31756 0.61505,1.94896 0.52777,0.60403 1.40345,0.66137 2.19654,0.66845 4.24938,0.0379 8.29575,0.007 8.29575,0.007 l 5.66741,-6.60964 h -9.79198 v -25.78178 h 14.60089 v 7.2561 h 7.59495 l 0.002,-12.49781 c 0.006,-0.47297 -0.0869,-0.74559 -0.58541,-0.73628 l -28.56997,0.022 z"
               id="path24-3"
               sodipodi:nodetypes="csssccccccccccc" />
          </g>
        </g>
        <path
           style="font-weight:bold;font-size:7.76111px;line-height:1.25;font-family:'Space Mono';-inkscape-font-specification:'Space Mono Bold';text-align:end;letter-spacing:0px;word-spacing:0px;text-anchor:end;fill:#0c1a27;stroke-width:0.230898"
           d="m 73.906552,120.32585 q -0.131939,0.68298 -0.62865,1.10208 -0.48895,0.4191 -1.311627,0.4191 -0.426861,0 -0.799395,-0.13194 -0.364772,-0.13194 -0.636411,-0.38029 -0.271638,-0.24836 -0.426861,-0.61313 -0.155222,-0.36477 -0.155222,-0.83044 v -0.0931 q 0,-0.46567 0.155222,-0.8382 0.155223,-0.37254 0.426861,-0.63642 0.2794,-0.26387 0.644173,-0.40357 0.372533,-0.1397 0.791633,-0.1397 0.807155,0 1.303866,0.4191 0.504472,0.4191 0.636411,1.10207 l -0.962377,0.24836 q -0.04657,-0.34149 -0.294923,-0.58984 -0.248355,-0.24836 -0.698499,-0.24836 -0.20955,0 -0.395817,0.0776 -0.186267,0.0776 -0.325967,0.22507 -0.1397,0.1397 -0.225072,0.34925 -0.07761,0.20179 -0.07761,0.45791 v 0.0466 q 0,0.25611 0.07761,0.4579 0.08537,0.19403 0.225072,0.32597 0.1397,0.13194 0.325967,0.20179 0.186267,0.0621 0.395817,0.0621 0.450144,0 0.682977,-0.22508 0.240595,-0.22507 0.310445,-0.60536 z m 4.749796,0 q -0.131939,0.68298 -0.62865,1.10208 -0.48895,0.4191 -1.311628,0.4191 -0.426861,0 -0.799394,-0.13194 -0.364772,-0.13194 -0.636411,-0.38029 -0.271639,-0.24836 -0.426861,-0.61313 -0.155222,-0.36477 -0.155222,-0.83044 v -0.0931 q 0,-0.46567 0.155222,-0.8382 0.155222,-0.37254 0.426861,-0.63642 0.2794,-0.26387 0.644172,-0.40357 0.372533,-0.1397 0.791633,-0.1397 0.807156,0 1.303867,0.4191 0.504472,0.4191 0.636411,1.10207 l -0.962378,0.24836 q -0.04657,-0.34149 -0.294922,-0.58984 -0.248356,-0.24836 -0.6985,-0.24836 -0.20955,0 -0.395817,0.0776 -0.186266,0.0776 -0.325966,0.22507 -0.1397,0.1397 -0.225072,0.34925 -0.07761,0.20179 -0.07761,0.45791 v 0.0466 q 0,0.25611 0.07761,0.4579 0.08537,0.19403 0.225072,0.32597 0.1397,0.13194 0.325966,0.20179 0.186267,0.0621 0.395817,0.0621 0.450144,0 0.682978,-0.22508 0.240594,-0.22507 0.310444,-0.60536 z m 3.500256,0.78387 q 0,0.15523 -0.06209,0.29493 -0.05433,0.13193 -0.155223,0.23283 -0.100894,0.0931 -0.240594,0.14746 -0.131939,0.0621 -0.2794,0.0621 -0.155222,0 -0.287161,-0.0621 -0.131939,-0.0543 -0.232833,-0.14746 -0.100895,-0.1009 -0.162984,-0.23283 -0.05433,-0.1397 -0.05433,-0.29493 0,-0.15522 0.05433,-0.28716 0.06209,-0.1397 0.162984,-0.23283 0.100894,-0.1009 0.232833,-0.15522 0.131939,-0.0621 0.287161,-0.0621 0.147461,0 0.2794,0.0621 0.1397,0.0543 0.240594,0.15522 0.100895,0.0931 0.155223,0.23283 0.06209,0.13194 0.06209,0.28716 z m 3.469212,-2.1343 q 0,0.18626 0.194028,0.27164 0.194028,0.0776 0.706261,0.13194 0.589844,0.0621 0.962378,0.35701 0.372533,0.28716 0.372533,0.80715 v 0.0466 q 0,0.57432 -0.4191,0.91581 -0.4191,0.34149 -1.179689,0.34149 -0.450144,0 -0.76835,-0.11642 -0.318205,-0.11641 -0.527755,-0.28716 -0.20955,-0.1785 -0.325967,-0.38805 -0.108655,-0.21732 -0.147461,-0.4191 l 0.900289,-0.29493 q 0.06209,0.24836 0.256117,0.43463 0.201788,0.18626 0.613127,0.18626 0.364772,0 0.496711,-0.10865 0.1397,-0.11642 0.1397,-0.24836 0,-0.0776 -0.03881,-0.1397 -0.03104,-0.0698 -0.124178,-0.12418 -0.09313,-0.0621 -0.256117,-0.10089 -0.155222,-0.0388 -0.395816,-0.0621 -0.651933,-0.0543 -1.039989,-0.33373 -0.380294,-0.28716 -0.380294,-0.8382 v -0.0466 q 0,-0.28717 0.124177,-0.50448 0.124178,-0.21731 0.325967,-0.36477 0.201789,-0.15522 0.465667,-0.23283 0.263877,-0.0776 0.543277,-0.0776 0.364772,0 0.62865,0.0931 0.271639,0.0854 0.457906,0.23283 0.186266,0.1397 0.302683,0.31821 0.116417,0.17074 0.178505,0.33373 l -0.884766,0.35701 q -0.06985,-0.20955 -0.240594,-0.32597 -0.170745,-0.12418 -0.442384,-0.12418 -0.248355,0 -0.372533,0.0931 -0.124178,0.0854 -0.124178,0.21731 z m 6.131274,-1.08656 h 0.9779 v 4.79637 q 0,0.26388 -0.170745,0.43462 -0.162983,0.17074 -0.426861,0.17074 h -2.289527 v -0.93133 h 1.699683 q 0.20955,0 0.20955,-0.23283 v -0.94686 h -0.1397 q -0.256117,0.66746 -1.102078,0.66746 -0.287161,0 -0.535516,-0.0931 -0.248356,-0.0931 -0.434623,-0.28717 -0.186266,-0.19402 -0.294922,-0.48118 -0.100894,-0.29493 -0.100894,-0.69074 v -2.40595 h 0.9779 v 2.20416 q 0,0.41134 0.194027,0.64417 0.194028,0.22507 0.582084,0.22507 0.442383,0 0.644172,-0.2794 0.20955,-0.28716 0.20955,-0.77611 z m 3.368318,1.08656 q 0,0.18626 0.194028,0.27164 0.194028,0.0776 0.706261,0.13194 0.589844,0.0621 0.962377,0.35701 0.372534,0.28716 0.372534,0.80715 v 0.0466 q 0,0.57432 -0.4191,0.91581 -0.4191,0.34149 -1.179689,0.34149 -0.450144,0 -0.76835,-0.11642 -0.318205,-0.11641 -0.527755,-0.28716 -0.20955,-0.1785 -0.325967,-0.38805 -0.108655,-0.21732 -0.147461,-0.4191 l 0.900289,-0.29493 q 0.06209,0.24836 0.256116,0.43463 0.201789,0.18626 0.613128,0.18626 0.364772,0 0.496711,-0.10865 0.1397,-0.11642 0.1397,-0.24836 0,-0.0776 -0.0388,-0.1397 -0.03105,-0.0698 -0.124178,-0.12418 -0.09313,-0.0621 -0.256117,-0.10089 -0.155222,-0.0388 -0.395816,-0.0621 -0.651934,-0.0543 -1.039989,-0.33373 -0.380295,-0.28716 -0.380295,-0.8382 v -0.0466 q 0,-0.28717 0.124178,-0.50448 0.124178,-0.21731 0.325967,-0.36477 0.201789,-0.15522 0.465666,-0.23283 0.263878,-0.0776 0.543278,-0.0776 0.364772,0 0.62865,0.0931 0.271639,0.0854 0.457905,0.23283 0.186267,0.1397 0.302684,0.31821 0.116416,0.17074 0.178505,0.33373 l -0.884766,0.35701 q -0.06985,-0.20955 -0.240595,-0.32597 -0.170744,-0.12418 -0.442383,-0.12418 -0.248355,0 -0.372533,0.0931 -0.124178,0.0854 -0.124178,0.21731 z m 3.414883,-1.08656 h 1.140883 v -1.58326 h 0.977896 v 1.58326 h 1.38924 v 0.93134 h -1.38924 v 1.75401 q 0,0.23283 0.20955,0.23283 h 1.03999 v 0.93133 h -1.62983 q -0.26388,0 -0.434622,-0.17074 -0.162984,-0.17075 -0.162984,-0.43462 v -2.31281 h -1.140883 z m 5.719939,2.24296 q 0.008,0.17075 0.0776,0.31821 0.0776,0.1397 0.20179,0.24835 0.13194,0.1009 0.29492,0.16299 0.17074,0.0543 0.35701,0.0543 0.36477,0 0.5588,-0.12418 0.19403,-0.13194 0.2794,-0.31045 l 0.8382,0.46567 q -0.0699,0.14746 -0.19403,0.31044 -0.12417,0.15523 -0.32596,0.28717 -0.19403,0.13193 -0.48119,0.21731 -0.2794,0.0854 -0.6597,0.0854 -0.43462,0 -0.79163,-0.1397 -0.35701,-0.1397 -0.62089,-0.40358 -0.25612,-0.26388 -0.40358,-0.64417 -0.1397,-0.3803 -0.1397,-0.86148 v -0.0466 q 0,-0.44238 0.14746,-0.80716 0.15523,-0.36477 0.4191,-0.62089 0.26388,-0.25611 0.61313,-0.39581 0.35701,-0.14746 0.76059,-0.14746 0.49671,0 0.85372,0.1785 0.35701,0.17075 0.58985,0.44239 0.23283,0.26387 0.34149,0.58984 0.10865,0.31821 0.10865,0.62089 v 0.51999 z m 0.92357,-1.46685 q -0.37253,0 -0.60537,0.19403 -0.23283,0.18627 -0.30268,0.43462 h 1.8161 q -0.0466,-0.27164 -0.29492,-0.45014 -0.2406,-0.17851 -0.61313,-0.17851 z m 6.82977,3.0734 h -0.9779 v -2.70086 q 0,-0.16299 -0.0854,-0.2406 -0.0776,-0.0854 -0.20955,-0.0854 -0.15522,0 -0.24836,0.0931 -0.0854,0.0931 -0.0854,0.2794 v 2.6543 h -0.9779 v -2.70086 q 0,-0.16299 -0.0931,-0.2406 -0.0854,-0.0854 -0.20955,-0.0854 -0.1397,0 -0.23283,0.0931 -0.0931,0.0931 -0.0931,0.2794 v 2.6543 h -0.9779 v -3.84951 h 0.9779 v 0.37254 h 0.1397 q 0.0466,-0.20955 0.20955,-0.34149 0.17075,-0.1397 0.44238,-0.1397 0.25612,0 0.43463,0.1397 0.1785,0.13194 0.24059,0.34149 h 0.1397 q 0.0621,-0.20955 0.25612,-0.34149 0.20179,-0.1397 0.49671,-0.1397 0.38805,0 0.62089,0.26387 0.23283,0.25612 0.23283,0.71403 z m 2.11102,-2.76295 q 0,0.18626 0.19403,0.27164 0.19402,0.0776 0.70626,0.13194 0.58984,0.0621 0.96237,0.35701 0.37254,0.28716 0.37254,0.80715 v 0.0466 q 0,0.57432 -0.4191,0.91581 -0.4191,0.34149 -1.17969,0.34149 -0.45015,0 -0.76835,-0.11642 -0.31821,-0.11641 -0.52776,-0.28716 -0.20955,-0.1785 -0.32596,-0.38805 -0.10866,-0.21732 -0.14746,-0.4191 l 0.90028,-0.29493 q 0.0621,0.24836 0.25612,0.43463 0.20179,0.18626 0.61313,0.18626 0.36477,0 0.49671,-0.10865 0.1397,-0.11642 0.1397,-0.24836 0,-0.0776 -0.0388,-0.1397 -0.031,-0.0698 -0.12417,-0.12418 -0.0931,-0.0621 -0.25612,-0.10089 -0.15522,-0.0388 -0.39582,-0.0621 -0.65193,-0.0543 -1.03999,-0.33373 -0.38029,-0.28716 -0.38029,-0.8382 v -0.0466 q 0,-0.28717 0.12418,-0.50448 0.12418,-0.21731 0.32596,-0.36477 0.20179,-0.15522 0.46567,-0.23283 0.26388,-0.0776 0.54328,-0.0776 0.36477,0 0.62865,0.0931 0.27164,0.0854 0.4579,0.23283 0.18627,0.1397 0.30269,0.31821 0.11641,0.17074 0.1785,0.33373 l -0.88476,0.35701 q -0.0699,-0.20955 -0.2406,-0.32597 -0.17074,-0.12418 -0.44238,-0.12418 -0.24836,0 -0.37253,0.0931 -0.12418,0.0854 -0.12418,0.21731 z"
           id="text965"
           aria-label="cc.systems" />
      </g>
      <text
         xml:space="preserve"
         style="font-size:4.23333px;line-height:1.25;font-family:'Source Code Pro';-inkscape-font-specification:'Source Code Pro';stroke-width:0.264583"
         x="100.78652"
         y="133.02176"
         id="text1"><tspan
           sodipodi:role="line"
           id="tspan1"
           style="stroke-width:0.264583"
           x="100.78652"
           y="133.02176" /></text>
    </g>
  </g>
</svg>
