<svg width="1038" height="236" viewBox="0 0 1038 236" fill="none" xmlns="http://www.w3.org/2000/svg">
<path d="M166.357 14H33.8566C15.1581 14 0 29.142 0 47.8205V180.18C0 198.858 15.1581 214 33.8566 214H166.357C185.055 214 200.214 198.858 200.214 180.18V47.8205C200.214 29.142 185.055 14 166.357 14Z" fill="#0C1A27"/>
<path d="M90.636 87.8765C90.636 87.8765 90.4623 147.743 90.5733 177.315C90.5808 179.021 90.7322 180.614 92.1148 182.195C93.4376 183.707 95.6324 183.851 97.6202 183.868C108.271 183.963 129.647 183.886 129.647 183.886L143.851 167.338H108.075V102.788H144.67V120.955H163.705L163.71 89.6648C163.725 88.4806 163.492 87.7981 162.243 87.8214L90.636 87.8765Z" fill="white"/>
<path d="M36.6023 44.1396C36.6023 44.1396 36.4287 104.006 36.5397 133.578C36.5472 135.284 36.6986 136.877 38.0812 138.458C39.404 139.97 41.5987 140.114 43.5865 140.132C54.2369 140.227 64.3786 140.149 64.3786 140.149L78.5831 123.601H54.041V59.0515H90.6359V77.2184H109.672L109.677 45.928C109.692 44.7438 109.459 44.0613 108.209 44.0846L36.6023 44.1396Z" fill="white"/>
<path d="M247.779 184.59C242.845 184.59 238.652 182.987 235.199 179.78C231.869 176.45 230.204 172.195 230.204 167.015C230.204 161.835 231.869 157.642 235.199 154.435C238.652 151.105 242.845 149.44 247.779 149.44C252.835 149.44 257.029 151.105 260.359 154.435C263.689 157.642 265.354 161.835 265.354 167.015C265.354 172.195 263.689 176.45 260.359 179.78C257.029 182.987 252.835 184.59 247.779 184.59Z" fill="#0C1A27"/>
<path d="M347.274 184.59C335.31 184.59 325.505 182 317.859 176.82C310.212 171.64 305.587 164.24 303.984 154.62L325.444 149.07C326.307 153.387 327.725 156.778 329.699 159.245C331.795 161.712 334.324 163.5 337.284 164.61C340.367 165.597 343.697 166.09 347.274 166.09C352.7 166.09 356.709 165.165 359.299 163.315C361.889 161.342 363.184 158.937 363.184 156.1C363.184 153.263 361.95 151.105 359.484 149.625C357.017 148.022 353.07 146.727 347.644 145.74L342.464 144.815C336.05 143.582 330.192 141.917 324.889 139.82C319.585 137.6 315.33 134.578 312.124 130.755C308.917 126.932 307.314 121.998 307.314 115.955C307.314 106.828 310.644 99.86 317.304 95.05C323.964 90.1167 332.72 87.65 343.574 87.65C353.81 87.65 362.32 89.9317 369.104 94.495C375.887 99.0583 380.327 105.04 382.424 112.44L360.779 119.1C359.792 114.413 357.757 111.083 354.674 109.11C351.714 107.137 348.014 106.15 343.574 106.15C339.134 106.15 335.742 106.952 333.399 108.555C331.055 110.035 329.884 112.132 329.884 114.845C329.884 117.805 331.117 120.025 333.584 121.505C336.05 122.862 339.38 123.91 343.574 124.65L348.754 125.575C355.66 126.808 361.889 128.473 367.439 130.57C373.112 132.543 377.552 135.442 380.759 139.265C384.089 142.965 385.754 148.022 385.754 154.435C385.754 164.055 382.239 171.517 375.209 176.82C368.302 182 358.99 184.59 347.274 184.59ZM416.17 219V198.65H466.12C469.574 198.65 471.3 196.8 471.3 193.1V169.975H467.97C466.984 172.072 465.442 174.168 463.345 176.265C461.248 178.362 458.412 180.088 454.835 181.445C451.258 182.802 446.695 183.48 441.145 183.48C433.992 183.48 427.702 181.877 422.275 178.67C416.972 175.34 412.84 170.777 409.88 164.98C406.92 159.183 405.44 152.523 405.44 145V90.24H428.75V143.15C428.75 150.057 430.415 155.237 433.745 158.69C437.198 162.143 442.07 163.87 448.36 163.87C455.513 163.87 461.063 161.527 465.01 156.84C468.957 152.03 470.93 145.37 470.93 136.86V90.24H494.24V198.28C494.24 204.57 492.39 209.565 488.69 213.265C484.99 217.088 480.057 219 473.89 219H416.17ZM558.289 184.59C546.326 184.59 536.521 182 528.874 176.82C521.228 171.64 516.603 164.24 514.999 154.62L536.459 149.07C537.323 153.387 538.741 156.778 540.714 159.245C542.811 161.712 545.339 163.5 548.299 164.61C551.383 165.597 554.713 166.09 558.289 166.09C563.716 166.09 567.724 165.165 570.314 163.315C572.904 161.342 574.199 158.937 574.199 156.1C574.199 153.263 572.966 151.105 570.499 149.625C568.033 148.022 564.086 146.727 558.659 145.74L553.479 144.815C547.066 143.582 541.208 141.917 535.904 139.82C530.601 137.6 526.346 134.578 523.139 130.755C519.933 126.932 518.329 121.998 518.329 115.955C518.329 106.828 521.659 99.86 528.319 95.05C534.979 90.1167 543.736 87.65 554.589 87.65C564.826 87.65 573.336 89.9317 580.119 94.495C586.903 99.0583 591.343 105.04 593.439 112.44L571.794 119.1C570.808 114.413 568.773 111.083 565.689 109.11C562.729 107.137 559.029 106.15 554.589 106.15C550.149 106.15 546.758 106.952 544.414 108.555C542.071 110.035 540.899 112.132 540.899 114.845C540.899 117.805 542.133 120.025 544.599 121.505C547.066 122.862 550.396 123.91 554.589 124.65L559.769 125.575C566.676 126.808 572.904 128.473 578.454 130.57C584.128 132.543 588.568 135.442 591.774 139.265C595.104 142.965 596.769 148.022 596.769 154.435C596.769 164.055 593.254 171.517 586.224 176.82C579.318 182 570.006 184.59 558.289 184.59ZM650.539 182C644.496 182 639.562 180.15 635.739 176.45C632.039 172.627 630.189 167.57 630.189 161.28V109.48H607.249V90.24H630.189V61.75H653.499V90.24H678.659V109.48H653.499V157.21C653.499 160.91 655.226 162.76 658.679 162.76H676.439V182H650.539ZM738.317 184.59C729.191 184.59 721.112 182.678 714.082 178.855C707.176 174.908 701.749 169.42 697.802 162.39C693.979 155.237 692.067 146.85 692.067 137.23V135.01C692.067 125.39 693.979 117.065 697.802 110.035C701.626 102.882 706.991 97.3933 713.897 93.57C720.804 89.6233 728.821 87.65 737.947 87.65C746.951 87.65 754.782 89.685 761.442 93.755C768.102 97.7017 773.282 103.252 776.982 110.405C780.682 117.435 782.532 125.637 782.532 135.01V142.965H715.747C715.994 149.255 718.337 154.373 722.777 158.32C727.217 162.267 732.644 164.24 739.057 164.24C745.594 164.24 750.404 162.822 753.487 159.985C756.571 157.148 758.914 154.003 760.517 150.55L779.572 160.54C777.846 163.747 775.317 167.262 771.987 171.085C768.781 174.785 764.464 177.992 759.037 180.705C753.611 183.295 746.704 184.59 738.317 184.59ZM715.932 125.575H758.852C758.359 120.272 756.201 116.017 752.377 112.81C748.677 109.603 743.806 108 737.762 108C731.472 108 726.477 109.603 722.777 112.81C719.077 116.017 716.796 120.272 715.932 125.575ZM803.28 182V90.24H826.22V100.23H829.55C831.153 97.1467 833.805 94.495 837.505 92.275C841.205 89.9317 846.076 88.76 852.12 88.76C858.656 88.76 863.898 90.055 867.845 92.645C871.791 95.1117 874.813 98.38 876.91 102.45H880.24C882.336 98.5033 885.296 95.235 889.12 92.645C892.943 90.055 898.37 88.76 905.4 88.76C911.073 88.76 916.191 89.9933 920.755 92.46C925.441 94.8033 929.141 98.4417 931.855 103.375C934.691 108.185 936.11 114.29 936.11 121.69V182H912.8V123.355C912.8 118.298 911.505 114.537 908.915 112.07C906.325 109.48 902.686 108.185 898 108.185C892.696 108.185 888.565 109.912 885.605 113.365C882.768 116.695 881.35 121.505 881.35 127.795V182H858.04V123.355C858.04 118.298 856.745 114.537 854.155 112.07C851.565 109.48 847.926 108.185 843.24 108.185C837.936 108.185 833.805 109.912 830.845 113.365C828.008 116.695 826.59 121.505 826.59 127.795V182H803.28ZM999.29 184.59C987.327 184.59 977.522 182 969.875 176.82C962.228 171.64 957.603 164.24 956 154.62L977.46 149.07C978.323 153.387 979.742 156.778 981.715 159.245C983.812 161.712 986.34 163.5 989.3 164.61C992.383 165.597 995.713 166.09 999.29 166.09C1004.72 166.09 1008.73 165.165 1011.32 163.315C1013.91 161.342 1015.2 158.937 1015.2 156.1C1015.2 153.263 1013.97 151.105 1011.5 149.625C1009.03 148.022 1005.09 146.727 999.66 145.74L994.48 144.815C988.067 143.582 982.208 141.917 976.905 139.82C971.602 137.6 967.347 134.578 964.14 130.755C960.933 126.932 959.33 121.998 959.33 115.955C959.33 106.828 962.66 99.86 969.32 95.05C975.98 90.1167 984.737 87.65 995.59 87.65C1005.83 87.65 1014.34 89.9317 1021.12 94.495C1027.9 99.0583 1032.34 105.04 1034.44 112.44L1012.8 119.1C1011.81 114.413 1009.77 111.083 1006.69 109.11C1003.73 107.137 1000.03 106.15 995.59 106.15C991.15 106.15 987.758 106.952 985.415 108.555C983.072 110.035 981.9 112.132 981.9 114.845C981.9 117.805 983.133 120.025 985.6 121.505C988.067 122.862 991.397 123.91 995.59 124.65L1000.77 125.575C1007.68 126.808 1013.91 128.473 1019.46 130.57C1025.13 132.543 1029.57 135.442 1032.78 139.265C1036.11 142.965 1037.77 148.022 1037.77 154.435C1037.77 164.055 1034.26 171.517 1027.23 176.82C1020.32 182 1011.01 184.59 999.29 184.59Z" fill="#0C1A27"/>
</svg>
